{
  "accessors": [
    {
      "bufferView": 2,
      "componentType": 5126,
      "count": 80,
      "max": [
        0.798533022403717,
        -1.0444999933242798,
        -2.539496898651123
      ],
      "min": [
        -10.262125015258789,
        -2.8909170627593994,
        -2.820533037185669
      ],
      "type": "VEC3"
    },
    {
      "bufferView": 2,
      "byteOffset": 960,
      "componentType": 5126,
      "count": 80,
      "max": [
        1.0,
        1.0,
        1.0
      ],
      "min": [
        -1.0,
        -1.0,
        -1.0
      ],
      "type": "VEC3"
    },
    {
      "bufferView": 1,
      "componentType": 5126,
      "count": 80,
      "max": [
        0.1532279998064041,
        0.21701499819755554
      ],
      "min": [
        0.007813000120222569,
        0.007813000120222569
      ],
      "type": "VEC2"
    },
    {
      "bufferView": 0,
      "componentType": 5125,
      "count": 120,
      "type": "SCALAR"
    },
    {
      "bufferView": 2,
      "byteOffset": 1920,
      "componentType": 5126,
      "count": 246,
      "max": [
        -1.505133032798767,
        -0.8589450120925903,
        6.070462226867676
      ],
      "min": [
        -9.607425689697266,
        -2.4591989517211914,
        4.143529891967773
      ],
      "type": "VEC3"
    },
    {
      "bufferView": 2,
      "byteOffset": 4872,
      "componentType": 5126,
      "count": 246,
      "max": [
        0.9929342269897461,
        0.9999992251396179,
        0.9966954588890076
      ],
      "min": [
        -0.9929467439651489,
        -0.9999991059303284,
        -0.9966976046562195
      ],
      "type": "VEC3"
    },
    {
      "bufferView": 1,
      "byteOffset": 640,
      "componentType": 5126,
      "count": 246,
      "max": [
        0.5443260073661804,
        0.11405900120735168
      ],
      "min": [
        0.34534698724746704,
        0.011355999857187271
      ],
      "type": "VEC2"
    },
    {
      "bufferView": 0,
      "byteOffset": 480,
      "componentType": 5125,
      "count": 828,
      "type": "SCALAR"
    },
    {
      "bufferView": 2,
      "byteOffset": 7824,
      "componentType": 5126,
      "count": 5808,
      "max": [
        -1.357807993888855,
        0.15198400616645813,
        7.255828857421875
      ],
      "min": [
        -10.02453327178955,
        -2.469774007797241,
        -2.522469997406006
      ],
      "type": "VEC3"
    },
    {
      "bufferView": 2,
      "byteOffset": 77520,
      "componentType": 5126,
      "count": 5808,
      "max": [
        1.0,
        1.0,
        1.0
      ],
      "min": [
        -1.0,
        -1.0,
        -1.0
      ],
      "type": "VEC3"
    },
    {
      "bufferView": 1,
      "byteOffset": 2608,
      "componentType": 5126,
      "count": 5808,
      "max": [
        0.6114019751548767,
        0.15683400630950928
      ],
      "min": [
        0.0019529999699443579,
        0.0019529999699443579
      ],
      "type": "VEC2"
    },
    {
      "bufferView": 0,
      "byteOffset": 3792,
      "componentType": 5125,
      "count": 16086,
      "type": "SCALAR"
    },
    {
      "bufferView": 2,
      "byteOffset": 147216,
      "componentType": 5126,
      "count": 6460,
      "max": [
        3.575299024581909,
        1.3632639646530151,
        8.036304473876953
      ],
      "min": [
        -11.538187980651855,
        -2.438218116760254,
        -2.7583329677581787
      ],
      "type": "VEC3"
    },
    {
      "bufferView": 2,
      "byteOffset": 224736,
      "componentType": 5126,
      "count": 6460,
      "max": [
        1.0,
        1.0,
        1.0
      ],
      "min": [
        -1.0,
        -1.0,
        -1.0
      ],
      "type": "VEC3"
    },
    {
      "bufferView": 1,
      "byteOffset": 49072,
      "componentType": 5126,
      "count": 6460,
      "max": [
        1.0,
        1.0
      ],
      "min": [
        0.0,
        0.0
      ],
      "type": "VEC2"
    },
    {
      "bufferView": 0,
      "byteOffset": 68136,
      "componentType": 5125,
      "count": 21900,
      "type": "SCALAR"
    },
    {
      "bufferView": 2,
      "byteOffset": 302256,
      "componentType": 5126,
      "count": 9982,
      "max": [
        1.3180630207061768,
        0.8191530108451843,
        8.239813804626465
      ],
      "min": [
        -9.97488021850586,
        -2.486185073852539,
        -1.080698013305664
      ],
      "type": "VEC3"
    },
    {
      "bufferView": 2,
      "byteOffset": 422040,
      "componentType": 5126,
      "count": 9982,
      "max": [
        1.0,
        1.0,
        1.0
      ],
      "min": [
        -1.0,
        -1.0,
        -1.0
      ],
      "type": "VEC3"
    },
    {
      "bufferView": 1,
      "byteOffset": 100752,
      "componentType": 5126,
      "count": 9982,
      "max": [
        1.0,
        1.0
      ],
      "min": [
        0.0,
        0.0
      ],
      "type": "VEC2"
    },
    {
      "bufferView": 0,
      "byteOffset": 155736,
      "componentType": 5125,
      "count": 29310,
      "type": "SCALAR"
    },
    {
      "bufferView": 2,
      "byteOffset": 541824,
      "componentType": 5126,
      "count": 216,
      "max": [
        1.6136709451675415,
        1.1102700233459473,
        0.2454330027103424
      ],
      "min": [
        0.22284699976444244,
        -0.25942501425743103,
        -0.8501690030097961
      ],
      "type": "VEC3"
    },
    {
      "bufferView": 2,
      "byteOffset": 544416,
      "componentType": 5126,
      "count": 216,
      "max": [
        0.90644371509552,
        0.8926728963851929,
        1.0
      ],
      "min": [
        -0.90644371509552,
        -0.892672598361969,
        -0.42232808470726013
      ],
      "type": "VEC3"
    },
    {
      "bufferView": 1,
      "byteOffset": 180608,
      "componentType": 5126,
      "count": 216,
      "max": [
        1.0,
        1.0
      ],
      "min": [
        0.0,
        0.0
      ],
      "type": "VEC2"
    },
    {
      "bufferView": 0,
      "byteOffset": 272976,
      "componentType": 5125,
      "count": 324,
      "type": "SCALAR"
    },
    {
      "bufferView": 2,
      "byteOffset": 547008,
      "componentType": 5126,
      "count": 14451,
      "max": [
        0.9870349764823914,
        1.1677769422531128,
        3.6405510902404785
      ],
      "min": [
        -2.8085970878601074,
        -0.25540000200271606,
        0.3368769884109497
      ],
      "type": "VEC3"
    },
    {
      "bufferView": 2,
      "byteOffset": 720420,
      "componentType": 5126,
      "count": 14451,
      "max": [
        0.9993991255760193,
        0.9991858601570129,
        0.9988314509391785
      ],
      "min": [
        -0.9993965029716492,
        -0.9991856217384338,
        -0.998836874961853
      ],
      "type": "VEC3"
    },
    {
      "bufferView": 1,
      "byteOffset": 182336,
      "componentType": 5126,
      "count": 14451,
      "max": [
        1.0,
        1.0
      ],
      "min": [
        0.0,
        0.0
      ],
      "type": "VEC2"
    },
    {
      "bufferView": 0,
      "byteOffset": 274272,
      "componentType": 5125,
      "count": 79440,
      "type": "SCALAR"
    },
    {
      "bufferView": 2,
      "byteOffset": 893832,
      "componentType": 5126,
      "count": 9646,
      "max": [
        3.31235408782959,
        1.3632639646530151,
        7.872424125671387
      ],
      "min": [
        -11.978260040283203,
        -2.486185073852539,
        -2.7583329677581787
      ],
      "type": "VEC3"
    },
    {
      "bufferView": 2,
      "byteOffset": 1009584,
      "componentType": 5126,
      "count": 9646,
      "max": [
        1.0,
        1.0,
        1.0
      ],
      "min": [
        -1.0,
        -1.0,
        -1.0
      ],
      "type": "VEC3"
    },
    {
      "bufferView": 1,
      "byteOffset": 297944,
      "componentType": 5126,
      "count": 9646,
      "max": [
        1.0,
        1.000022053718567
      ],
      "min": [
        0.0,
        0.0
      ],
      "type": "VEC2"
    },
    {
      "bufferView": 0,
      "byteOffset": 592032,
      "componentType": 5125,
      "count": 33924,
      "type": "SCALAR"
    },
    {
      "bufferView": 2,
      "byteOffset": 1125336,
      "componentType": 5126,
      "count": 9991,
      "max": [
        3.647257089614868,
        1.3342859745025635,
        7.416554927825928
      ],
      "min": [
        -11.584630966186523,
        -2.3810009956359863,
        -2.7124810218811035
      ],
      "type": "VEC3"
    },
    {
      "bufferView": 2,
      "byteOffset": 1245228,
      "componentType": 5126,
      "count": 9991,
      "max": [
        1.0,
        1.0,
        1.0
      ],
      "min": [
        -1.0,
        -1.0,
        -1.0
      ],
      "type": "VEC3"
    },
    {
      "bufferView": 1,
      "byteOffset": 375112,
      "componentType": 5126,
      "count": 9991,
      "max": [
        1.0,
        1.0
      ],
      "min": [
        0.0,
        0.0
      ],
      "type": "VEC2"
    },
    {
      "bufferView": 0,
      "byteOffset": 727728,
      "componentType": 5125,
      "count": 38712,
      "type": "SCALAR"
    },
    {
      "bufferView": 2,
      "byteOffset": 1365120,
      "componentType": 5126,
      "count": 800,
      "max": [
        -6.465652942657471,
        0.20643499493598938,
        7.416554927825928
      ],
      "min": [
        -6.878518104553223,
        -0.20643499493598938,
        5.546403884887695
      ],
      "type": "VEC3"
    },
    {
      "bufferView": 2,
      "byteOffset": 1374720,
      "componentType": 5126,
      "count": 800,
      "max": [
        1.0,
        1.0,
        2.0000006770715117e-06
      ],
      "min": [
        -1.0,
        -1.0,
        -1.0
      ],
      "type": "VEC3"
    },
    {
      "bufferView": 1,
      "byteOffset": 455040,
      "componentType": 5126,
      "count": 800,
      "max": [
        1.0,
        1.0
      ],
      "min": [
        0.0,
        0.0
      ],
      "type": "VEC2"
    },
    {
      "bufferView": 0,
      "byteOffset": 882576,
      "componentType": 5125,
      "count": 1200,
      "type": "SCALAR"
    }
  ],
  "asset": {
    "extras": {
      "author": "scandicactus (https://sketchfab.com/scandicactus)",
      "license": "CC-BY-4.0 (http://creativecommons.org/licenses/by/4.0/)",
      "source": "https://sketchfab.com/3d-models/chemistrybulbsinprogress-1a106d376e2f48a69626533ca585eb66",
      "title": "Chemistrybulbsinprogress"
    },
    "generator": "Sketchfab-11.31.0",
    "version": "2.0"
  },
  "bufferViews": [
    {
      "buffer": 0,
      "byteLength": 887376,
      "name": "floatBufferViews",
      "target": 34963
    },
    {
      "buffer": 0,
      "byteLength": 461440,
      "byteOffset": 887376,
      "byteStride": 8,
      "name": "floatBufferViews",
      "target": 34962
    },
    {
      "buffer": 0,
      "byteLength": 1384320,
      "byteOffset": 1348816,
      "byteStride": 12,
      "name": "floatBufferViews",
      "target": 34962
    }
  ],
  "buffers": [
    {
      "byteLength": 2733136,
      "uri": "scene.bin"
    }
  ],
  "materials": [
    {
      "doubleSided": true,
      "name": "KB3D_SecretLab_Native3AluminiumA",
      "pbrMetallicRoughness": {
        "metallicFactor": 0.0,
        "roughnessFactor": 0.6
      }
    },
    {
      "doubleSided": true,
      "name": "KB3D_SecretLab_Native3MetalRawB",
      "pbrMetallicRoughness": {
        "metallicFactor": 0.0,
        "roughnessFactor": 0.6
      }
    },
    {
      "doubleSided": true,
      "name": "KB3D_SecretLab_Native3SteelStainlessA",
      "pbrMetallicRoughness": {
        "metallicFactor": 0.0,
        "roughnessFactor": 0.6
      }
    },
    {
      "doubleSided": true,
      "name": "initialShadingGroup",
      "pbrMetallicRoughness": {
        "metallicFactor": 0.0,
        "roughnessFactor": 0.6
      }
    }
  ],
  "meshes": [
    {
      "name": "Object_0",
      "primitives": [
        {
          "attributes": {
            "NORMAL": 1,
            "POSITION": 0,
            "TEXCOORD_0": 2
          },
          "indices": 3,
          "material": 0,
          "mode": 4
        }
      ]
    },
    {
      "name": "Object_1",
      "primitives": [
        {
          "attributes": {
            "NORMAL": 5,
            "POSITION": 4,
            "TEXCOORD_0": 6
          },
          "indices": 7,
          "material": 1,
          "mode": 4
        }
      ]
    },
    {
      "name": "Object_2",
      "primitives": [
        {
          "attributes": {
            "NORMAL": 9,
            "POSITION": 8,
            "TEXCOORD_0": 10
          },
          "indices": 11,
          "material": 2,
          "mode": 4
        }
      ]
    },
    {
      "name": "Object_3",
      "primitives": [
        {
          "attributes": {
            "NORMAL": 13,
            "POSITION": 12,
            "TEXCOORD_0": 14
          },
          "indices": 15,
          "material": 3,
          "mode": 4
        }
      ]
    },
    {
      "name": "Object_4",
      "primitives": [
        {
          "attributes": {
            "NORMAL": 17,
            "POSITION": 16,
            "TEXCOORD_0": 18
          },
          "indices": 19,
          "material": 3,
          "mode": 4
        }
      ]
    },
    {
      "name": "Object_5",
      "primitives": [
        {
          "attributes": {
            "NORMAL": 21,
            "POSITION": 20,
            "TEXCOORD_0": 22
          },
          "indices": 23,
          "material": 3,
          "mode": 4
        }
      ]
    },
    {
      "name": "Object_6",
      "primitives": [
        {
          "attributes": {
            "NORMAL": 25,
            "POSITION": 24,
            "TEXCOORD_0": 26
          },
          "indices": 27,
          "material": 3,
          "mode": 4
        }
      ]
    },
    {
      "name": "Object_7",
      "primitives": [
        {
          "attributes": {
            "NORMAL": 29,
            "POSITION": 28,
            "TEXCOORD_0": 30
          },
          "indices": 31,
          "material": 3,
          "mode": 4
        }
      ]
    },
    {
      "name": "Object_8",
      "primitives": [
        {
          "attributes": {
            "NORMAL": 33,
            "POSITION": 32,
            "TEXCOORD_0": 34
          },
          "indices": 35,
          "material": 3,
          "mode": 4
        }
      ]
    },
    {
      "name": "Object_9",
      "primitives": [
        {
          "attributes": {
            "NORMAL": 37,
            "POSITION": 36,
            "TEXCOORD_0": 38
          },
          "indices": 39,
          "material": 3,
          "mode": 4
        }
      ]
    }
  ],
  "nodes": [
    {
      "children": [
        1
      ],
      "matrix": [
        1.0,
        0.0,
        0.0,
        0.0,
        0.0,
        2.220446049250313e-16,
        -1.0,
        0.0,
        0.0,
        1.0,
        2.220446049250313e-16,
        0.0,
        0.0,
        0.0,
        0.0,
        1.0
      ],
      "name": "Sketchfab_model"
    },
    {
      "children": [
        2,
        3,
        4,
        5,
        6,
        7,
        8,
        9,
        10,
        11
      ],
      "name": "chemistrybulbsinprogress.obj.cleaner.materialmerger.gles"
    },
    {
      "mesh": 0,
      "name": "Object_2"
    },
    {
      "mesh": 1,
      "name": "Object_3"
    },
    {
      "mesh": 2,
      "name": "Object_4"
    },
    {
      "mesh": 3,
      "name": "Object_5"
    },
    {
      "mesh": 4,
      "name": "Object_6"
    },
    {
      "mesh": 5,
      "name": "Object_7"
    },
    {
      "mesh": 6,
      "name": "Object_8"
    },
    {
      "mesh": 7,
      "name": "Object_9"
    },
    {
      "mesh": 8,
      "name": "Object_10"
    },
    {
      "mesh": 9,
      "name": "Object_11"
    }
  ],
  "scene": 0,
  "scenes": [
    {
      "name": "Sketchfab_Scene",
      "nodes": [
        0
      ]
    }
  ]
}
